<svg class="diagram-root" style="background: #f5f6f6" xmlns="http://www.w3.org/2000/svg" xmlns:xlink="http://www.w3.org/1999/xlink"><style>.diagram-root { font-family: "Helvetica Neue", sans-serif; font-size: 12px; } .t { overflow: visible; } .t-bg { y: 40; fill: #fff;   } .th { fill: #005aa0;   } .tht { fill: #fff; font-size: 14px;  } .tf { fill: #323c46; overflow: visible; } .tf.pk { fill: #005aa0; font-weight: bold; } .tf.fk { font-weight: bold; } .ty { fill: #adb1b5; font-weight: normal; text-anchor: end; } .r { fill: transparent; stroke: #c3c3c3; stroke-width: 1; } .l { stroke: 1; } .i { fill: #c2c7ce; stroke: #c2c7ce; } .i.ix { fill: #afb3b6; stroke: #000; } .fa { fill: transparent; overflow: visible; } .fa .bg.hover { fill: #f7f7f7; } .c { cy: 12; r: 4; stroke: #d2d2dc; fill: #d2d2dc; } .hr { fill: transparent; stroke: #323c46; stroke-opacity: 0.035; stroke-width: 13; } .dc { stroke: #fa5a3c; fill: #fa5a3c; } .x { stroke: white; stroke-width: 1; } .hl .th { fill: #1b9bff; } .hl .tht {  } .fhl .bg { fill: #e7f4ff; } .fhls .bg {  } .r.hl { stroke: #1b9bff; } .dim { opacity: 0.25; }</style><g class="drawing-wrapper" transform="translate(-80.77222222222245, 51.11444444444444) scale(1,1)"><g class="rs"><path d="M 403.33 193.11 m -1, 0 a 1,1 0 1,0 2,0 a 1,1 0 1,0 -2,0 M 403.33 193.11 m -0.5, 0 a 0.5,0.5 0 1,0 1,0 a 0.5,0.5 0 1,0 -1,0  M403.33 193.11 L403.33 193.11 391.33 193.11 M 403.33 199.11 m -1, 0 a 1,1 0 1,0 2,0 a 1,1 0 1,0 -2,0 M 403.33 199.11 m -0.5, 0 a 0.5,0.5 0 1,0 1,0 a 0.5,0.5 0 1,0 -1,0  M403.33 199.11 L403.33 199.11 396.33 193.11 403.33 187.11 M 403.33 187.11 m -1, 0 a 1,1 0 1,0 2,0 a 1,1 0 1,0 -2,0 M 403.33 187.11 m -0.5, 0 a 0.5,0.5 0 1,0 1,0 a 0.5,0.5 0 1,0 -1,0  M391.33 193.11 Q 352.71 193.11, 314.08 114.5 T 236.82 35.88555555555556 M 224.82 35.88555555555556 m -1, 0 a 1,1 0 1,0 2,0 a 1,1 0 1,0 -2,0 M 224.82 35.88555555555556 m -0.5, 0 a 0.5,0.5 0 1,0 1,0 a 0.5,0.5 0 1,0 -1,0  M224.82 35.88555555555556 L224.82 35.88555555555556 236.82 35.88555555555556 M230.82 41.88555555555556 L230.82 41.88555555555556 230.82 29.885555555555563" id="h1260218953" class="r"></path><path d="M 403.33 243.11 m -1, 0 a 1,1 0 1,0 2,0 a 1,1 0 1,0 -2,0 M 403.33 243.11 m -0.5, 0 a 0.5,0.5 0 1,0 1,0 a 0.5,0.5 0 1,0 -1,0  M403.33 243.11 L403.33 243.11 391.33 243.11 M 403.33 249.11 m -1, 0 a 1,1 0 1,0 2,0 a 1,1 0 1,0 -2,0 M 403.33 249.11 m -0.5, 0 a 0.5,0.5 0 1,0 1,0 a 0.5,0.5 0 1,0 -1,0  M403.33 249.11 L403.33 249.11 396.33 243.11 403.33 237.11 M 403.33 237.11 m -1, 0 a 1,1 0 1,0 2,0 a 1,1 0 1,0 -2,0 M 403.33 237.11 m -0.5, 0 a 0.5,0.5 0 1,0 1,0 a 0.5,0.5 0 1,0 -1,0  M391.33 243.11 Q 364.52 243.11, 337.7 201.17 T 284.06 159.22111111111116 M 272.06 159.22111111111116 m -1, 0 a 1,1 0 1,0 2,0 a 1,1 0 1,0 -2,0 M 272.06 159.22111111111116 m -0.5, 0 a 0.5,0.5 0 1,0 1,0 a 0.5,0.5 0 1,0 -1,0  M272.06 159.22111111111116 L272.06 159.22111111111116 284.06 159.22111111111116 M278.06 165.22111111111116 L278.06 165.22111111111116 278.06 153.22111111111116" id="h2742084214" class="r"></path><path d="M 403.33 268.11 m -1, 0 a 1,1 0 1,0 2,0 a 1,1 0 1,0 -2,0 M 403.33 268.11 m -0.5, 0 a 0.5,0.5 0 1,0 1,0 a 0.5,0.5 0 1,0 -1,0  M403.33 268.11 L403.33 268.11 391.33 268.11 M 403.33 274.11 m -1, 0 a 1,1 0 1,0 2,0 a 1,1 0 1,0 -2,0 M 403.33 274.11 m -0.5, 0 a 0.5,0.5 0 1,0 1,0 a 0.5,0.5 0 1,0 -1,0  M403.33 274.11 L403.33 274.11 396.33 268.11 403.33 262.11 M 403.33 262.11 m -1, 0 a 1,1 0 1,0 2,0 a 1,1 0 1,0 -2,0 M 403.33 262.11 m -0.5, 0 a 0.5,0.5 0 1,0 1,0 a 0.5,0.5 0 1,0 -1,0  M391.33 268.11 Q 362.27 268.11, 333.2 269.78 T 275.06 271.4422222222223 M 263.06 271.4422222222223 m -1, 0 a 1,1 0 1,0 2,0 a 1,1 0 1,0 -2,0 M 263.06 271.4422222222223 m -0.5, 0 a 0.5,0.5 0 1,0 1,0 a 0.5,0.5 0 1,0 -1,0  M263.06 271.4422222222223 L263.06 271.4422222222223 275.06 271.4422222222223 M269.06 277.4422222222223 L269.06 277.4422222222223 269.06 265.4422222222223" id="h4183899817" class="r"></path><path d="M 102.77222222222245 60.88555555555556 m -1, 0 a 1,1 0 1,0 2,0 a 1,1 0 1,0 -2,0 M 102.77222222222245 60.88555555555556 m -0.5, 0 a 0.5,0.5 0 1,0 1,0 a 0.5,0.5 0 1,0 -1,0  M102.77222222222245 60.88555555555556 L102.77222222222245 60.88555555555556 90.77222222222245 60.88555555555556 M 102.77222222222245 66.88555555555556 m -1, 0 a 1,1 0 1,0 2,0 a 1,1 0 1,0 -2,0 M 102.77222222222245 66.88555555555556 m -0.5, 0 a 0.5,0.5 0 1,0 1,0 a 0.5,0.5 0 1,0 -1,0  M102.77222222222245 66.88555555555556 L102.77222222222245 66.88555555555556 95.77222222222245 60.88555555555556 102.77222222222245 54.88555555555556 M 102.77222222222245 54.88555555555556 m -1, 0 a 1,1 0 1,0 2,0 a 1,1 0 1,0 -2,0 M 102.77222222222245 54.88555555555556 m -0.5, 0 a 0.5,0.5 0 1,0 1,0 a 0.5,0.5 0 1,0 -1,0  M90.77222222222245 60.88555555555556 C 48.136076953191385 60.88555555555556, 27.798743619858136 184.22111111111116, 124.66777777777787 184.22111111111116 M 136.66777777777787 184.22111111111116 m -1, 0 a 1,1 0 1,0 2,0 a 1,1 0 1,0 -2,0 M 136.66777777777787 184.22111111111116 m -0.5, 0 a 0.5,0.5 0 1,0 1,0 a 0.5,0.5 0 1,0 -1,0  M136.66777777777787 184.22111111111116 L136.66777777777787 184.22111111111116 124.66777777777787 184.22111111111116 M130.66777777777787 190.22111111111116 L130.66777777777787 190.22111111111116 130.66777777777787 178.22111111111116" id="h3788640083" class="r"></path></g><g class="hrs"></g><g class="ts"><svg width="106.7" height="225" x="403.33" y="61.11" id="h2471855060" class="t"><rect height="40" width="106.7" class="th"></rect><text x="13" y="25" class="tht">posts</text><rect height="185" width="106.7" class="t-bg"></rect><text x="13" y="61" class="tf">post_id<tspan x="93.7" class="ty">int</tspan></text><text x="13" y="86" class="tf">title<tspan x="93.7" class="ty">text</tspan></text><text x="13" y="111" class="tf">text<tspan x="93.7" class="ty">text</tspan></text><text x="13" y="136" class="tf fk">author<tspan x="93.7" class="ty">int</tspan></text><text x="13" y="161" class="tf">location<tspan x="93.7" class="ty">text</tspan></text><text x="13" y="186" class="tf fk">region<tspan x="93.7" class="ty">int</tspan></text><text x="13" y="211" class="tf fk">category<tspan x="93.7" class="ty">int</tspan></text></svg><svg width="148.06" height="100" x="114.99666666666671" y="214.44222222222228" id="h2129794260" class="t"><rect height="40" width="148.06" class="th"></rect><text x="13" y="25" class="tht">categories</text><rect height="60" width="148.06" class="t-bg"></rect><text x="13" y="61" class="tf fk">category_id<tspan x="135.06" class="ty">int</tspan></text><text x="13" y="86" class="tf">category_name<tspan x="135.06" class="ty">text</tspan></text></svg><svg width="122.05" height="100" x="102.77222222222245" y="-21.114444444444437" id="h2948373614" class="t"><rect height="40" width="122.05" class="th"></rect><text x="13" y="25" class="tht">users</text><rect height="60" width="122.05" class="t-bg"></rect><text x="13" y="61" class="tf fk">user_id<tspan x="109.05" class="ty">int</tspan></text><text x="13" y="86" class="tf fk">user_region<tspan x="109.05" class="ty">int</tspan></text></svg><svg width="135.39" height="100" x="136.66777777777787" y="102.22111111111114" id="h850082920" class="t"><rect height="40" width="135.39" class="th"></rect><text x="13" y="25" class="tht">regions</text><rect height="60" width="135.39" class="t-bg"></rect><text x="13" y="61" class="tf fk">region_id<tspan x="122.38999999999999" class="ty">int</tspan></text><text x="13" y="86" class="tf fk">region_name<tspan x="122.38999999999999" class="ty">text</tspan></text></svg></g></g><text class="qdbd-link" x="10" y="20">www.quickdatabasediagrams.com</text></svg>