<svg class="diagram-root" style="background: #f5f6f6" xmlns="http://www.w3.org/2000/svg" xmlns:xlink="http://www.w3.org/1999/xlink"><style>.diagram-root { font-family: "Helvetica Neue", sans-serif; font-size: 12px; } .t { overflow: visible; } .t-bg { y: 40; fill: #fff;   } .th { fill: #005aa0;   } .tht { fill: #fff; font-size: 14px;  } .tf { fill: #323c46; overflow: visible; } .tf.pk { fill: #005aa0; font-weight: bold; } .tf.fk { font-weight: bold; } .ty { fill: #adb1b5; font-weight: normal; text-anchor: end; } .r { fill: transparent; stroke: #c3c3c3; stroke-width: 1; } .l { stroke: 1; } .i { fill: #c2c7ce; stroke: #c2c7ce; } .i.ix { fill: #afb3b6; stroke: #000; } .fa { fill: transparent; overflow: visible; } .fa .bg.hover { fill: #f7f7f7; } .c { cy: 12; r: 4; stroke: #d2d2dc; fill: #d2d2dc; } .hr { fill: transparent; stroke: #323c46; stroke-opacity: 0.035; stroke-width: 13; } .dc { stroke: #fa5a3c; fill: #fa5a3c; } .x { stroke: white; stroke-width: 1; } .hl .th { fill: #1b9bff; } .hl .tht {  } .fhl .bg { fill: #e7f4ff; } .fhls .bg {  } .r.hl { stroke: #1b9bff; } .dim { opacity: 0.25; }</style><g class="drawing-wrapper" transform="translate(17.956666666666678, 7.574444444444492) scale(1,1)"><g class="rs"><path d="M 184.79 104.4255555555555 m -1, 0 a 1,1 0 1,0 2,0 a 1,1 0 1,0 -2,0 M 184.79 104.4255555555555 m -0.5, 0 a 0.5,0.5 0 1,0 1,0 a 0.5,0.5 0 1,0 -1,0  M184.79 104.4255555555555 L184.79 104.4255555555555 196.79 104.4255555555555 M 184.79 110.4255555555555 m -1, 0 a 1,1 0 1,0 2,0 a 1,1 0 1,0 -2,0 M 184.79 110.4255555555555 m -0.5, 0 a 0.5,0.5 0 1,0 1,0 a 0.5,0.5 0 1,0 -1,0  M184.79 110.4255555555555 L184.79 110.4255555555555 191.79 104.4255555555555 184.79 98.4255555555555 M 184.79 98.4255555555555 m -1, 0 a 1,1 0 1,0 2,0 a 1,1 0 1,0 -2,0 M 184.79 98.4255555555555 m -0.5, 0 a 0.5,0.5 0 1,0 1,0 a 0.5,0.5 0 1,0 -1,0  M196.79 104.4255555555555 Q 212.18 104.4255555555555, 227.56 150.38 T 258.33 196.34 M 270.33 196.34 m -1, 0 a 1,1 0 1,0 2,0 a 1,1 0 1,0 -2,0 M 270.33 196.34 m -0.5, 0 a 0.5,0.5 0 1,0 1,0 a 0.5,0.5 0 1,0 -1,0  M270.33 196.34 L270.33 196.34 258.33 196.34 M264.33 202.34 L264.33 202.34 264.33 190.34" id="h197569405" class="r"></path><path d="M 390.38 246.34 m -1, 0 a 1,1 0 1,0 2,0 a 1,1 0 1,0 -2,0 M 390.38 246.34 m -0.5, 0 a 0.5,0.5 0 1,0 1,0 a 0.5,0.5 0 1,0 -1,0  M390.38 246.34 L390.38 246.34 402.38 246.34 M 390.38 252.34 m -1, 0 a 1,1 0 1,0 2,0 a 1,1 0 1,0 -2,0 M 390.38 252.34 m -0.5, 0 a 0.5,0.5 0 1,0 1,0 a 0.5,0.5 0 1,0 -1,0  M390.38 252.34 L390.38 252.34 397.38 246.34 390.38 240.34 M 390.38 240.34 m -1, 0 a 1,1 0 1,0 2,0 a 1,1 0 1,0 -2,0 M 390.38 240.34 m -0.5, 0 a 0.5,0.5 0 1,0 1,0 a 0.5,0.5 0 1,0 -1,0  M402.38 246.34 Q 423.15 246.34, 443.91 177.29 T 485.44 108.22999999999999 M 497.44 108.22999999999999 m -1, 0 a 1,1 0 1,0 2,0 a 1,1 0 1,0 -2,0 M 497.44 108.22999999999999 m -0.5, 0 a 0.5,0.5 0 1,0 1,0 a 0.5,0.5 0 1,0 -1,0  M497.44 108.22999999999999 L497.44 108.22999999999999 485.44 108.22999999999999 M491.44 114.22999999999999 L491.44 114.22999999999999 491.44 102.22999999999999" id="h2016227973" class="r"></path><path d="M 390.38 271.34000000000003 m -1, 0 a 1,1 0 1,0 2,0 a 1,1 0 1,0 -2,0 M 390.38 271.34000000000003 m -0.5, 0 a 0.5,0.5 0 1,0 1,0 a 0.5,0.5 0 1,0 -1,0  M390.38 271.34000000000003 L390.38 271.34000000000003 402.38 271.34000000000003 M 390.38 277.34000000000003 m -1, 0 a 1,1 0 1,0 2,0 a 1,1 0 1,0 -2,0 M 390.38 277.34000000000003 m -0.5, 0 a 0.5,0.5 0 1,0 1,0 a 0.5,0.5 0 1,0 -1,0  M390.38 277.34000000000003 L390.38 277.34000000000003 397.38 271.34000000000003 390.38 265.34000000000003 M 390.38 265.34000000000003 m -1, 0 a 1,1 0 1,0 2,0 a 1,1 0 1,0 -2,0 M 390.38 265.34000000000003 m -0.5, 0 a 0.5,0.5 0 1,0 1,0 a 0.5,0.5 0 1,0 -1,0  M402.38 271.34000000000003 Q 427.87 271.34000000000003, 453.36 303.67 T 504.33000000000004 336 M 516.33 336 m -1, 0 a 1,1 0 1,0 2,0 a 1,1 0 1,0 -2,0 M 516.33 336 m -0.5, 0 a 0.5,0.5 0 1,0 1,0 a 0.5,0.5 0 1,0 -1,0  M516.33 336 L516.33 336 504.33000000000004 336 M510.33000000000004 342 L510.33000000000004 342 510.33000000000004 330" id="h1850668245" class="r"></path></g><g class="hrs"></g><g class="ts"><svg width="121.36" height="125" x="516.33" y="279" id="h2153083178" class="t"><rect height="40" width="121.36" class="th"></rect><text x="13" y="25" class="tht">doctors</text><rect height="85" width="121.36" class="t-bg"></rect><text x="13" y="61" class="tf fk">doctor_id<tspan x="108.36" class="ty">int</tspan></text><text x="13" y="86" class="tf">first_name<tspan x="108.36" class="ty">text</tspan></text><text x="13" y="111" class="tf">last_name<tspan x="108.36" class="ty">text</tspan></text></svg><svg width="146.07" height="175" x="497.44" y="51.23" id="h2571196243" class="t"><rect height="40" width="146.07" class="th"></rect><text x="13" y="25" class="tht">patients</text><rect height="135" width="146.07" class="t-bg"></rect><text x="13" y="61" class="tf fk">patient_id<tspan x="133.07" class="ty">int</tspan></text><text x="13" y="86" class="tf">first_name<tspan x="133.07" class="ty">text</tspan></text><text x="13" y="111" class="tf">last_name<tspan x="133.07" class="ty">text</tspan></text><text x="13" y="136" class="tf">address<tspan x="133.07" class="ty">text</tspan></text><text x="13" y="161" class="tf">phone_number<tspan x="133.07" class="ty">text</tspan></text></svg><svg width="120.05" height="150" x="270.33" y="139.34" id="h2569522486" class="t"><rect height="40" width="120.05" class="th"></rect><text x="13" y="25" class="tht">visits</text><rect height="110" width="120.05" class="t-bg"></rect><text x="13" y="61" class="tf fk">visit_id<tspan x="107.05" class="ty">int</tspan></text><text x="13" y="86" class="tf">visit_date<tspan x="107.05" class="ty">date</tspan></text><text x="13" y="111" class="tf fk">patient_id<tspan x="107.05" class="ty">int</tspan></text><text x="13" y="136" class="tf fk">doctor_id<tspan x="107.05" class="ty">int</tspan></text></svg><svg width="180.75" height="175" x="4.043333333333321" y="22.42555555555551" id="h647382338" class="t"><rect height="40" width="180.75" class="th"></rect><text x="13" y="25" class="tht">diagnoses</text><rect height="135" width="180.75" class="t-bg"></rect><text x="13" y="61" class="tf">diagnosis_id<tspan x="167.75" class="ty">int</tspan></text><text x="13" y="86" class="tf fk">visit_id<tspan x="167.75" class="ty">int</tspan></text><text x="13" y="111" class="tf">diagnosis_name<tspan x="167.75" class="ty">text</tspan></text><text x="13" y="136" class="tf">diagnosis_description<tspan x="167.75" class="ty">text</tspan></text><text x="13" y="161" class="tf">notes<tspan x="167.75" class="ty">text</tspan></text></svg></g></g><text class="qdbd-link" x="10" y="20">www.quickdatabasediagrams.com</text></svg>