<svg class="diagram-root" style="background: #f5f6f6" xmlns="http://www.w3.org/2000/svg" xmlns:xlink="http://www.w3.org/1999/xlink"><style>.diagram-root { font-family: "Helvetica Neue", sans-serif; font-size: 12px; } .t { overflow: visible; } .t-bg { y: 40; fill: #fff;   } .th { fill: #005aa0;   } .tht { fill: #fff; font-size: 14px;  } .tf { fill: #323c46; overflow: visible; } .tf.pk { fill: #005aa0; font-weight: bold; } .tf.fk { font-weight: bold; } .ty { fill: #adb1b5; font-weight: normal; text-anchor: end; } .r { fill: transparent; stroke: #c3c3c3; stroke-width: 1; } .l { stroke: 1; } .i { fill: #c2c7ce; stroke: #c2c7ce; } .i.ix { fill: #afb3b6; stroke: #000; } .fa { fill: transparent; overflow: visible; } .fa .bg.hover { fill: #f7f7f7; } .c { cy: 12; r: 4; stroke: #d2d2dc; fill: #d2d2dc; } .hr { fill: transparent; stroke: #323c46; stroke-opacity: 0.035; stroke-width: 13; } .dc { stroke: #fa5a3c; fill: #fa5a3c; } .x { stroke: white; stroke-width: 1; } .hl .th { fill: #1b9bff; } .hl .tht {  } .fhl .bg { fill: #e7f4ff; } .fhls .bg {  } .r.hl { stroke: #1b9bff; } .dim { opacity: 0.25; }</style><g class="drawing-wrapper" transform="translate(-124.11000000000001, -30.329999999999984) scale(1,1)"><g class="rs"><path d="M 287.28 190.36 m -1, 0 a 1,1 0 1,0 2,0 a 1,1 0 1,0 -2,0 M 287.28 190.36 m -0.5, 0 a 0.5,0.5 0 1,0 1,0 a 0.5,0.5 0 1,0 -1,0  M287.28 190.36 L287.28 190.36 299.28 190.36 M 287.28 196.36 m -1, 0 a 1,1 0 1,0 2,0 a 1,1 0 1,0 -2,0 M 287.28 196.36 m -0.5, 0 a 0.5,0.5 0 1,0 1,0 a 0.5,0.5 0 1,0 -1,0  M287.28 196.36 L287.28 196.36 294.28 190.36 287.28 184.36 M 287.28 184.36 m -1, 0 a 1,1 0 1,0 2,0 a 1,1 0 1,0 -2,0 M 287.28 184.36 m -0.5, 0 a 0.5,0.5 0 1,0 1,0 a 0.5,0.5 0 1,0 -1,0  M299.28 190.36 Q 333.28 190.36, 367.28 154.11 T 435.28 117.86 M 447.28 117.86 m -1, 0 a 1,1 0 1,0 2,0 a 1,1 0 1,0 -2,0 M 447.28 117.86 m -0.5, 0 a 0.5,0.5 0 1,0 1,0 a 0.5,0.5 0 1,0 -1,0  M447.28 117.86 L447.28 117.86 435.28 117.86 M441.28 123.86 L441.28 123.86 441.28 111.86" id="h3350365369" class="r"></path><path d="M 287.28 215.36 m -1, 0 a 1,1 0 1,0 2,0 a 1,1 0 1,0 -2,0 M 287.28 215.36 m -0.5, 0 a 0.5,0.5 0 1,0 1,0 a 0.5,0.5 0 1,0 -1,0  M287.28 215.36 L287.28 215.36 299.28 215.36 M 287.28 221.36 m -1, 0 a 1,1 0 1,0 2,0 a 1,1 0 1,0 -2,0 M 287.28 221.36 m -0.5, 0 a 0.5,0.5 0 1,0 1,0 a 0.5,0.5 0 1,0 -1,0  M287.28 221.36 L287.28 221.36 294.28 215.36 287.28 209.36 M 287.28 209.36 m -1, 0 a 1,1 0 1,0 2,0 a 1,1 0 1,0 -2,0 M 287.28 209.36 m -0.5, 0 a 0.5,0.5 0 1,0 1,0 a 0.5,0.5 0 1,0 -1,0  M299.28 215.36 Q 323.83 215.36, 348.37 241.49 T 397.46 267.61 M 409.46 267.61 m -1, 0 a 1,1 0 1,0 2,0 a 1,1 0 1,0 -2,0 M 409.46 267.61 m -0.5, 0 a 0.5,0.5 0 1,0 1,0 a 0.5,0.5 0 1,0 -1,0  M409.46 267.61 L409.46 267.61 397.46 267.61 M403.46 273.61 L403.46 273.61 403.46 261.61" id="h3723298703" class="r"></path><path d="M 878 159 m -1, 0 a 1,1 0 1,0 2,0 a 1,1 0 1,0 -2,0 M 878 159 m -0.5, 0 a 0.5,0.5 0 1,0 1,0 a 0.5,0.5 0 1,0 -1,0  M878 159 L878 159 866 159 M 878 165 m -1, 0 a 1,1 0 1,0 2,0 a 1,1 0 1,0 -2,0 M 878 165 m -0.5, 0 a 0.5,0.5 0 1,0 1,0 a 0.5,0.5 0 1,0 -1,0  M878 165 L878 165 871 159 878 153 M 878 153 m -1, 0 a 1,1 0 1,0 2,0 a 1,1 0 1,0 -2,0 M 878 153 m -0.5, 0 a 0.5,0.5 0 1,0 1,0 a 0.5,0.5 0 1,0 -1,0  M866 159 Q 825.91 159, 785.82 138.17 T 705.64 117.33 M 693.64 117.33 m -1, 0 a 1,1 0 1,0 2,0 a 1,1 0 1,0 -2,0 M 693.64 117.33 m -0.5, 0 a 0.5,0.5 0 1,0 1,0 a 0.5,0.5 0 1,0 -1,0  M693.64 117.33 L693.64 117.33 705.64 117.33 M699.64 123.33 L699.64 123.33 699.64 111.33" id="h2080876201" class="r"></path><path d="M 878 184 m -1, 0 a 1,1 0 1,0 2,0 a 1,1 0 1,0 -2,0 M 878 184 m -0.5, 0 a 0.5,0.5 0 1,0 1,0 a 0.5,0.5 0 1,0 -1,0  M878 184 L878 184 866 184 M 878 190 m -1, 0 a 1,1 0 1,0 2,0 a 1,1 0 1,0 -2,0 M 878 190 m -0.5, 0 a 0.5,0.5 0 1,0 1,0 a 0.5,0.5 0 1,0 -1,0  M878 190 L878 190 871 184 878 178 M 878 178 m -1, 0 a 1,1 0 1,0 2,0 a 1,1 0 1,0 -2,0 M 878 178 m -0.5, 0 a 0.5,0.5 0 1,0 1,0 a 0.5,0.5 0 1,0 -1,0  M866 184 Q 848.68 184, 831.35 234.7 T 796.7 285.39 M 784.7 285.39 m -1, 0 a 1,1 0 1,0 2,0 a 1,1 0 1,0 -2,0 M 784.7 285.39 m -0.5, 0 a 0.5,0.5 0 1,0 1,0 a 0.5,0.5 0 1,0 -1,0  M784.7 285.39 L784.7 285.39 796.7 285.39 M790.7 291.39 L790.7 291.39 790.7 279.39" id="h1721089730" class="r"></path><path d="M 615.28 360.39 m -1, 0 a 1,1 0 1,0 2,0 a 1,1 0 1,0 -2,0 M 615.28 360.39 m -0.5, 0 a 0.5,0.5 0 1,0 1,0 a 0.5,0.5 0 1,0 -1,0  M615.28 360.39 L615.28 360.39 603.28 360.39 M 615.28 366.39 m -1, 0 a 1,1 0 1,0 2,0 a 1,1 0 1,0 -2,0 M 615.28 366.39 m -0.5, 0 a 0.5,0.5 0 1,0 1,0 a 0.5,0.5 0 1,0 -1,0  M615.28 366.39 L615.28 366.39 608.28 360.39 615.28 354.39 M 615.28 354.39 m -1, 0 a 1,1 0 1,0 2,0 a 1,1 0 1,0 -2,0 M 615.28 354.39 m -0.5, 0 a 0.5,0.5 0 1,0 1,0 a 0.5,0.5 0 1,0 -1,0  M603.28 360.39 Q 585 360.39, 566.72 314 T 530.17 267.61 M 518.17 267.61 m -1, 0 a 1,1 0 1,0 2,0 a 1,1 0 1,0 -2,0 M 518.17 267.61 m -0.5, 0 a 0.5,0.5 0 1,0 1,0 a 0.5,0.5 0 1,0 -1,0  M518.17 267.61 L518.17 267.61 530.17 267.61 M524.17 273.61 L524.17 273.61 524.17 261.61" id="h1036129822" class="r"></path></g><g class="hrs"></g><g class="ts"><svg width="108.71" height="125" x="409.46" y="210.61" id="h2636733024" class="t"><rect height="40" width="108.71" class="th"></rect><text x="13" y="25" class="tht">album</text><rect height="85" width="108.71" class="t-bg"></rect><text x="13" y="61" class="tf fk">id<tspan x="95.71" class="ty">int</tspan></text><text x="13" y="86" class="tf">name<tspan x="95.71" class="ty">text</tspan></text><text x="13" y="111" class="tf">release<tspan x="95.71" class="ty">date</tspan></text></svg><svg width="141.17" height="100" x="146.11" y="133.36" id="h1413521010" class="t"><rect height="40" width="141.17" class="th"></rect><text x="13" y="25" class="tht">producers_albums</text><rect height="60" width="141.17" class="t-bg"></rect><text x="13" y="61" class="tf fk">producer<tspan x="128.17" class="ty">int</tspan></text><text x="13" y="86" class="tf fk">album<tspan x="128.17" class="ty">int</tspan></text></svg><svg width="101.48" height="100" x="878" y="102" id="h1510252548" class="t"><rect height="40" width="101.48" class="th"></rect><text x="13" y="25" class="tht">artist_songs</text><rect height="60" width="101.48" class="t-bg"></rect><text x="13" y="61" class="tf fk">artist<tspan x="88.48" class="ty">int</tspan></text><text x="13" y="86" class="tf fk">song<tspan x="88.48" class="ty">int</tspan></text></svg><svg width="95.36" height="100" x="447.28" y="60.86" id="h1449058316" class="t"><rect height="40" width="95.36" class="th"></rect><text x="13" y="25" class="tht">producer</text><rect height="60" width="95.36" class="t-bg"></rect><text x="13" y="61" class="tf fk">id<tspan x="82.36" class="ty">int</tspan></text><text x="13" y="86" class="tf">name<tspan x="82.36" class="ty">text</tspan></text></svg><svg width="169.42" height="150" x="615.28" y="228.39" id="h132079902" class="t"><rect height="40" width="169.42" class="th"></rect><text x="13" y="25" class="tht">song</text><rect height="110" width="169.42" class="t-bg"></rect><text x="13" y="61" class="tf fk">id<tspan x="156.42" class="ty">int</tspan></text><text x="13" y="86" class="tf">title<tspan x="156.42" class="ty">text</tspan></text><text x="13" y="111" class="tf">duration_in_seconds<tspan x="156.42" class="ty">int</tspan></text><text x="13" y="136" class="tf fk">album<tspan x="156.42" class="ty">int</tspan></text></svg><svg width="95.36" height="100" x="598.28" y="60.33" id="h964181062" class="t"><rect height="40" width="95.36" class="th"></rect><text x="13" y="25" class="tht">artist</text><rect height="60" width="95.36" class="t-bg"></rect><text x="13" y="61" class="tf fk">id<tspan x="82.36" class="ty">int</tspan></text><text x="13" y="86" class="tf">name<tspan x="82.36" class="ty">text</tspan></text></svg></g></g><text class="qdbd-link" x="10" y="20">www.quickdatabasediagrams.com</text></svg>