<svg class="diagram-root" style="background: #f5f6f6" xmlns="http://www.w3.org/2000/svg" xmlns:xlink="http://www.w3.org/1999/xlink"><style>.diagram-root { font-family: "Helvetica Neue", sans-serif; font-size: 12px; } .t { overflow: visible; } .t-bg { y: 40; fill: #fff;   } .th { fill: #005aa0;   } .tht { fill: #fff; font-size: 14px;  } .tf { fill: #323c46; overflow: visible; } .tf.pk { fill: #005aa0; font-weight: bold; } .tf.fk { font-weight: bold; } .ty { fill: #adb1b5; font-weight: normal; text-anchor: end; } .r { fill: transparent; stroke: #c3c3c3; stroke-width: 1; } .l { stroke: 1; } .i { fill: #c2c7ce; stroke: #c2c7ce; } .i.ix { fill: #afb3b6; stroke: #000; } .fa { fill: transparent; overflow: visible; } .fa .bg.hover { fill: #f7f7f7; } .c { cy: 12; r: 4; stroke: #d2d2dc; fill: #d2d2dc; } .hr { fill: transparent; stroke: #323c46; stroke-opacity: 0.035; stroke-width: 13; } .dc { stroke: #fa5a3c; fill: #fa5a3c; } .x { stroke: white; stroke-width: 1; } .hl .th { fill: #1b9bff; } .hl .tht {  } .fhl .bg { fill: #e7f4ff; } .fhls .bg {  } .r.hl { stroke: #1b9bff; } .dim { opacity: 0.25; }</style><g class="drawing-wrapper" transform="translate(-2.443333333333385, -122.22444444444443) scale(1,1)"><g class="rs"><path d="M 131.81 269.22 m -1, 0 a 1,1 0 1,0 2,0 a 1,1 0 1,0 -2,0 M 131.81 269.22 m -0.5, 0 a 0.5,0.5 0 1,0 1,0 a 0.5,0.5 0 1,0 -1,0  M131.81 269.22 L131.81 269.22 143.81 269.22 M 131.81 275.22 m -1, 0 a 1,1 0 1,0 2,0 a 1,1 0 1,0 -2,0 M 131.81 275.22 m -0.5, 0 a 0.5,0.5 0 1,0 1,0 a 0.5,0.5 0 1,0 -1,0  M131.81 275.22 L131.81 275.22 138.81 269.22 131.81 263.22 M 131.81 263.22 m -1, 0 a 1,1 0 1,0 2,0 a 1,1 0 1,0 -2,0 M 131.81 263.22 m -0.5, 0 a 0.5,0.5 0 1,0 1,0 a 0.5,0.5 0 1,0 -1,0  M143.81 269.22 Q 166.11 269.22, 188.41 321.72 T 233.00888888888915 374.21777777777805 M 245.00888888888915 374.21777777777805 m -1, 0 a 1,1 0 1,0 2,0 a 1,1 0 1,0 -2,0 M 245.00888888888915 374.21777777777805 m -0.5, 0 a 0.5,0.5 0 1,0 1,0 a 0.5,0.5 0 1,0 -1,0  M245.00888888888915 374.21777777777805 L245.00888888888915 374.21777777777805 233.00888888888915 374.21777777777805 M239.00888888888915 380.21777777777805 L239.00888888888915 380.21777777777805 239.00888888888915 368.21777777777805" id="h1578660783" class="r"></path><path d="M 525 359.78 m -1, 0 a 1,1 0 1,0 2,0 a 1,1 0 1,0 -2,0 M 525 359.78 m -0.5, 0 a 0.5,0.5 0 1,0 1,0 a 0.5,0.5 0 1,0 -1,0  M525 359.78 L525 359.78 513 359.78 M 525 365.78 m -1, 0 a 1,1 0 1,0 2,0 a 1,1 0 1,0 -2,0 M 525 365.78 m -0.5, 0 a 0.5,0.5 0 1,0 1,0 a 0.5,0.5 0 1,0 -1,0  M525 365.78 L525 365.78 518 359.78 525 353.78 M 525 353.78 m -1, 0 a 1,1 0 1,0 2,0 a 1,1 0 1,0 -2,0 M 525 353.78 m -0.5, 0 a 0.5,0.5 0 1,0 1,0 a 0.5,0.5 0 1,0 -1,0  M513 359.78 Q 481.18 359.78, 449.36 367 T 385.72 374.21777777777805 M 373.72 374.21777777777805 m -1, 0 a 1,1 0 1,0 2,0 a 1,1 0 1,0 -2,0 M 373.72 374.21777777777805 m -0.5, 0 a 0.5,0.5 0 1,0 1,0 a 0.5,0.5 0 1,0 -1,0  M373.72 374.21777777777805 L373.72 374.21777777777805 385.72 374.21777777777805 M379.72 380.21777777777805 L379.72 380.21777777777805 379.72 368.21777777777805" id="h4125018630" class="r"></path><path d="M 525 384.78 m -1, 0 a 1,1 0 1,0 2,0 a 1,1 0 1,0 -2,0 M 525 384.78 m -0.5, 0 a 0.5,0.5 0 1,0 1,0 a 0.5,0.5 0 1,0 -1,0  M525 384.78 L525 384.78 513 384.78 M 525 390.78 m -1, 0 a 1,1 0 1,0 2,0 a 1,1 0 1,0 -2,0 M 525 390.78 m -0.5, 0 a 0.5,0.5 0 1,0 1,0 a 0.5,0.5 0 1,0 -1,0  M525 390.78 L525 390.78 518 384.78 525 378.78 M 525 378.78 m -1, 0 a 1,1 0 1,0 2,0 a 1,1 0 1,0 -2,0 M 525 378.78 m -0.5, 0 a 0.5,0.5 0 1,0 1,0 a 0.5,0.5 0 1,0 -1,0  M513 384.78 Q 481.18 384.78, 449.36 379.5 T 385.72 374.21777777777805 M 373.72 374.21777777777805 m -1, 0 a 1,1 0 1,0 2,0 a 1,1 0 1,0 -2,0 M 373.72 374.21777777777805 m -0.5, 0 a 0.5,0.5 0 1,0 1,0 a 0.5,0.5 0 1,0 -1,0  M373.72 374.21777777777805 L373.72 374.21777777777805 385.72 374.21777777777805 M379.72 380.21777777777805 L379.72 380.21777777777805 379.72 368.21777777777805" id="h1480941940" class="r"></path><path d="M 369.46 234.22444444444443 m -1, 0 a 1,1 0 1,0 2,0 a 1,1 0 1,0 -2,0 M 369.46 234.22444444444443 m -0.5, 0 a 0.5,0.5 0 1,0 1,0 a 0.5,0.5 0 1,0 -1,0  M369.46 234.22444444444443 L369.46 234.22444444444443 381.46 234.22444444444443 M 369.46 240.22444444444443 m -1, 0 a 1,1 0 1,0 2,0 a 1,1 0 1,0 -2,0 M 369.46 240.22444444444443 m -0.5, 0 a 0.5,0.5 0 1,0 1,0 a 0.5,0.5 0 1,0 -1,0  M369.46 240.22444444444443 L369.46 240.22444444444443 376.46 234.22444444444443 369.46 228.22444444444443 M 369.46 228.22444444444443 m -1, 0 a 1,1 0 1,0 2,0 a 1,1 0 1,0 -2,0 M 369.46 228.22444444444443 m -0.5, 0 a 0.5,0.5 0 1,0 1,0 a 0.5,0.5 0 1,0 -1,0  M381.46 234.22444444444443 Q 414.35 234.22444444444443, 447.23 259.5 T 513 284.78 M 525 284.78 m -1, 0 a 1,1 0 1,0 2,0 a 1,1 0 1,0 -2,0 M 525 284.78 m -0.5, 0 a 0.5,0.5 0 1,0 1,0 a 0.5,0.5 0 1,0 -1,0  M525 284.78 L525 284.78 513 284.78 M519 290.78 L519 290.78 519 278.78" id="h1958673501" class="r"></path><path d="M 269.4422222222226 259.22444444444443 m -1, 0 a 1,1 0 1,0 2,0 a 1,1 0 1,0 -2,0 M 269.4422222222226 259.22444444444443 m -0.5, 0 a 0.5,0.5 0 1,0 1,0 a 0.5,0.5 0 1,0 -1,0  M269.4422222222226 259.22444444444443 L269.4422222222226 259.22444444444443 257.4422222222226 259.22444444444443 M 269.4422222222226 265.22444444444443 m -1, 0 a 1,1 0 1,0 2,0 a 1,1 0 1,0 -2,0 M 269.4422222222226 265.22444444444443 m -0.5, 0 a 0.5,0.5 0 1,0 1,0 a 0.5,0.5 0 1,0 -1,0  M269.4422222222226 265.22444444444443 L269.4422222222226 265.22444444444443 262.4422222222226 259.22444444444443 269.4422222222226 253.22444444444443 M 269.4422222222226 253.22444444444443 m -1, 0 a 1,1 0 1,0 2,0 a 1,1 0 1,0 -2,0 M 269.4422222222226 253.22444444444443 m -0.5, 0 a 0.5,0.5 0 1,0 1,0 a 0.5,0.5 0 1,0 -1,0  M257.4422222222226 259.22444444444443 Q 229.04 259.22444444444443, 200.63 239.22 T 143.81 219.22 M 131.81 219.22 m -1, 0 a 1,1 0 1,0 2,0 a 1,1 0 1,0 -2,0 M 131.81 219.22 m -0.5, 0 a 0.5,0.5 0 1,0 1,0 a 0.5,0.5 0 1,0 -1,0  M131.81 219.22 L131.81 219.22 143.81 219.22 M137.81 225.22 L137.81 225.22 137.81 213.22" id="h978950453" class="r"></path></g><g class="hrs"></g><g class="ts"><svg width="107.37" height="125" x="24.44" y="162.22" id="h1508957837" class="t"><rect height="40" width="107.37" class="th"></rect><text x="13" y="25" class="tht">palyers</text><rect height="85" width="107.37" class="t-bg"></rect><text x="13" y="61" class="tf fk">player_id<tspan x="94.37" class="ty">int</tspan></text><text x="13" y="86" class="tf">name<tspan x="94.37" class="ty">text</tspan></text><text x="13" y="111" class="tf fk">team<tspan x="94.37" class="ty">int</tspan></text></svg><svg width="130.05" height="225" x="525" y="227.78" id="h961075634" class="t"><rect height="40" width="130.05" class="th"></rect><text x="13" y="25" class="tht">game</text><rect height="185" width="130.05" class="t-bg"></rect><text x="13" y="61" class="tf fk">game_id<tspan x="117.05000000000001" class="ty">int</tspan></text><text x="13" y="86" class="tf">date<tspan x="117.05000000000001" class="ty">date</tspan></text><text x="13" y="111" class="tf">location<tspan x="117.05000000000001" class="ty">text</tspan></text><text x="13" y="136" class="tf fk">team_a<tspan x="117.05000000000001" class="ty">int</tspan></text><text x="13" y="161" class="tf fk">team_b<tspan x="117.05000000000001" class="ty">int</tspan></text><text x="13" y="186" class="tf">a_final_score<tspan x="117.05000000000001" class="ty">int</tspan></text><text x="13" y="211" class="tf">b_final_score<tspan x="117.05000000000001" class="ty">int</tspan></text></svg><svg width="100.02" height="125" x="269.4422222222226" y="152.22444444444443" id="h3811127937" class="t"><rect height="40" width="100.02" class="th"></rect><text x="13" y="25" class="tht">score</text><rect height="85" width="100.02" class="t-bg"></rect><text x="13" y="61" class="tf">scire_id<tspan x="87.02" class="ty">int</tspan></text><text x="13" y="86" class="tf fk">game<tspan x="87.02" class="ty">int</tspan></text><text x="13" y="111" class="tf fk">player<tspan x="87.02" class="ty">int</tspan></text></svg><svg width="128.71" height="100" x="245.00888888888915" y="317.21777777777805" id="h600056166" class="t"><rect height="40" width="128.71" class="th"></rect><text x="13" y="25" class="tht">leage</text><rect height="60" width="128.71" class="t-bg"></rect><text x="13" y="61" class="tf fk">team_id<tspan x="115.71000000000001" class="ty">int</tspan></text><text x="13" y="86" class="tf">team_name<tspan x="115.71000000000001" class="ty">text</tspan></text></svg></g></g><text class="qdbd-link" x="10" y="20">www.quickdatabasediagrams.com</text></svg>